<svg width="182" height="50" viewBox="0 0 182 50" fill="none" xmlns="http://www.w3.org/2000/svg">
<path d="M65.2909 37L69.9097 13.9057H74.3306L84.2612 30.6326L82.5126 30.5336L85.8118 13.9057H91.0905L86.4716 37H82.0837L72.1202 20.2731L73.9017 20.3721L70.5696 37H65.2909ZM98.798 37.2639C97.4343 37.2639 96.1696 36.956 95.0039 36.3402C93.8382 35.7023 92.9034 34.7895 92.1996 33.6018C91.4958 32.4141 91.1439 30.9845 91.1439 29.3129C91.1439 27.8173 91.3858 26.4426 91.8697 25.1889C92.3756 23.9352 93.0794 22.8465 93.9812 21.9227C94.8829 20.9989 95.9277 20.2841 97.1154 19.7782C98.3031 19.2504 99.5788 18.9864 100.942 18.9864C102.416 18.9864 103.681 19.2614 104.737 19.8112C105.792 20.3611 106.573 21.2189 107.079 22.3846C107.607 23.5283 107.794 25.013 107.64 26.8385C107.53 28.928 107.101 30.7645 106.353 32.3481C105.605 33.9098 104.594 35.1195 103.318 35.9773C102.064 36.835 100.558 37.2639 98.798 37.2639ZM100.382 33.008C101.393 33.008 102.284 32.766 103.054 32.2822C103.846 31.7763 104.462 31.0945 104.901 30.2367C105.363 29.3569 105.594 28.3341 105.594 27.1684C105.594 25.9587 105.231 25.002 104.506 24.2981C103.802 23.5943 102.812 23.2424 101.536 23.2424C100.547 23.2424 99.6558 23.4953 98.864 24.0012C98.0721 24.4851 97.4453 25.1669 96.9834 26.0467C96.5435 26.9045 96.3236 27.9162 96.3236 29.082C96.3236 30.2917 96.6755 31.2484 97.3793 31.9522C98.1051 32.6561 99.1059 33.008 100.382 33.008ZM103.912 37L104.605 33.4699L105.759 28.1912L106.452 22.9125L107.178 19.2504H112.325L108.795 37H103.912ZM119.96 37.2639C118.684 37.2639 117.596 37.011 116.694 36.5051C115.792 35.9773 115.143 35.2294 114.747 34.2617C114.373 33.2719 114.318 32.1062 114.582 30.7645L117.65 15.3243H122.797L119.729 30.7315C119.597 31.4794 119.674 32.0732 119.96 32.5131C120.246 32.953 120.774 33.1729 121.544 33.1729C121.895 33.1729 122.247 33.118 122.599 33.008C122.973 32.898 123.314 32.7441 123.622 32.5461L124.381 36.2082C123.743 36.6041 123.039 36.879 122.269 37.033C121.5 37.187 120.73 37.2639 119.96 37.2639ZM113.263 23.6053L114.054 19.6463H126.36L125.569 23.6053H113.263ZM133.835 37.2639C132.384 37.2639 131.13 36.956 130.074 36.3402C129.019 35.7023 128.271 34.7785 127.831 33.5688C127.391 32.3591 127.347 30.8635 127.699 29.082L129.645 19.2504H134.792L132.912 28.752C132.648 30.0497 132.747 31.0505 133.208 31.7543C133.692 32.4581 134.539 32.81 135.749 32.81C137.025 32.81 138.091 32.4361 138.949 31.6883C139.829 30.9405 140.412 29.7968 140.698 28.2572L142.512 19.2504H147.659L144.129 37H139.246L140.236 31.9852L140.962 33.5029C140.126 34.8005 139.081 35.7573 137.827 36.3732C136.574 36.967 135.243 37.2639 133.835 37.2639ZM148.072 37L151.602 19.2504H156.485L155.462 24.2981L155 22.8465C155.792 21.4168 156.826 20.4161 158.102 19.8442C159.377 19.2724 160.906 18.9864 162.687 18.9864L161.764 23.7373C161.544 23.7153 161.335 23.7043 161.137 23.7043C160.961 23.6823 160.774 23.6713 160.576 23.6713C159.058 23.6713 157.816 24.0452 156.848 24.793C155.902 25.5408 155.264 26.7505 154.934 28.4221L153.219 37H148.072ZM170.634 37.2639C168.786 37.2639 167.18 36.934 165.817 36.2742C164.475 35.6143 163.43 34.6906 162.683 33.5029C161.935 32.3152 161.561 30.9185 161.561 29.3129C161.561 27.3334 162.001 25.5738 162.881 24.0342C163.782 22.4726 165.014 21.2409 166.576 20.3391C168.159 19.4373 169.974 18.9864 172.019 18.9864C173.757 18.9864 175.252 19.3164 176.506 19.9762C177.76 20.614 178.728 21.5158 179.409 22.6815C180.113 23.8252 180.465 25.1999 180.465 26.8055C180.465 27.2674 180.432 27.7293 180.366 28.1912C180.322 28.6531 180.256 29.093 180.168 29.5108H165.487L166.015 26.5086H177.76L175.648 27.4324C175.824 26.4426 175.769 25.6178 175.483 24.958C175.197 24.2761 174.736 23.7593 174.098 23.4074C173.46 23.0334 172.69 22.8465 171.788 22.8465C170.667 22.8465 169.71 23.1214 168.918 23.6713C168.148 24.1992 167.565 24.936 167.169 25.8817C166.774 26.8275 166.576 27.8942 166.576 29.082C166.576 30.4456 166.95 31.4684 167.697 32.1502C168.467 32.81 169.622 33.14 171.161 33.14C172.063 33.14 172.932 32.997 173.768 32.7111C174.604 32.4251 175.318 32.0182 175.912 31.4904L178.057 34.8885C177.023 35.7023 175.857 36.3072 174.56 36.7031C173.284 37.077 171.975 37.2639 170.634 37.2639Z" fill="#3685FB"/>
<rect x="21.9039" width="19.3115" height="43.8079" rx="9.65574" transform="rotate(30 21.9039 0)" stroke="#3685FB" stroke-width="4"/>
<rect x="42.7516" y="2.40549" width="19.3115" height="43.8079" rx="9.65574" transform="rotate(30 42.7516 2.40549)" stroke="#3685FB" stroke-width="4"/>
</svg>
